<svg width="101" height="64" data-name="google+" xmlns="http://www.w3.org/2000/svg" viewBox="0 0 100.59 64">
    <title>google plus icon</title>
    <path data-name="icon" d="M62.74,32.74a33.76,33.76,0,0,1-3.8,16.18A27.4,27.4,0,0,1,48.11,60,32.09,32.09,0,0,1,32,64a31.18,31.18,0,0,1-12.44-2.54A31.88,31.88,0,0,1,9.34,54.65,32.16,32.16,0,0,1,2.53,44.44a31.79,31.79,0,0,1,0-24.88A31.88,31.88,0,0,1,9.35,9.35,32.16,32.16,0,0,1,19.56,2.54,31.44,31.44,0,0,1,32,0,30.22,30.22,0,0,1,53.44,8.39l-8.69,8.33A17.64,17.64,0,0,0,32,11.78a19.19,19.19,0,0,0-9.94,2.71A20.23,20.23,0,0,0,12.18,32a20.23,20.23,0,0,0,9.89,17.51A19.16,19.16,0,0,0,32,52.23a21.14,21.14,0,0,0,6.66-1,17.18,17.18,0,0,0,5-2.51,18.21,18.21,0,0,0,3.42-3.43,15.55,15.55,0,0,0,2.14-3.63,16,16,0,0,0,.93-3.23H32v-11h30.2a28.37,28.37,0,0,1,.53,5.32Zm37.85-5.32v9.16H91.47v9.13H82.3V36.58H73.18V27.42H82.3V18.29h9.17v9.13Z" style="fill: rgb(0, 0, 0); --darkreader-inline-fill:#e8e6e3;" data-darkreader-inline-fill=""></path>
</svg>